<svg xmlns="http://www.w3.org/2000/svg" width="80" height="240" viewBox="0 0 80 240">
  <defs>
    <radialGradient id="mariGrad" cx="50%" cy="38%" r="62%">
      <stop offset="0%" stop-color="#ffd75f" />
      <stop offset="100%" stop-color="#e8870f" />
    </radialGradient>
    <radialGradient id="leafGrad" cx="50%" cy="40%" r="60%">
      <stop offset="0%" stop-color="#9ccb6a" />
      <stop offset="100%" stop-color="#5b9637" />
    </radialGradient>
  </defs>
  <!-- two hanging strands -->
  <g stroke="#cf7a12" stroke-width="1.5" opacity="0.6">
    <path d="M26 0 L26 232" fill="none" />
    <path d="M54 0 L54 232" fill="none" />
  </g>
  <g fill="url(#leafGrad)">
    <ellipse cx="26" cy="226" rx="6" ry="11" />
    <ellipse cx="54" cy="232" rx="6" ry="11" />
  </g>
  <g fill="url(#mariGrad)">
    <circle cx="26" cy="14" r="12" />
    <circle cx="54" cy="22" r="12" />
    <circle cx="26" cy="40" r="12" />
    <circle cx="54" cy="48" r="12" />
    <circle cx="26" cy="66" r="12" />
    <circle cx="54" cy="74" r="12" />
    <circle cx="26" cy="92" r="12" />
    <circle cx="54" cy="100" r="12" />
    <circle cx="26" cy="118" r="12" />
    <circle cx="54" cy="126" r="12" />
    <circle cx="26" cy="144" r="12" />
    <circle cx="54" cy="152" r="12" />
    <circle cx="26" cy="170" r="12" />
    <circle cx="54" cy="178" r="12" />
    <circle cx="26" cy="196" r="11" />
    <circle cx="54" cy="204" r="11" />
  </g>
</svg>
