<svg xmlns="http://www.w3.org/2000/svg" width="200" height="150" viewBox="0 0 200 150">
  <defs>
    <radialGradient id="lotusGrad" cx="50%" cy="85%" r="85%">
      <stop offset="0%" stop-color="#fce3ee" />
      <stop offset="50%" stop-color="#ee8fb6" />
      <stop offset="100%" stop-color="#d65f93" />
    </radialGradient>
  </defs>
  <g transform="translate(100 132)" fill="url(#lotusGrad)">
    <path d="M0 0 C-13 -72 13 -72 0 0Z" />
    <path d="M0 0 C-48 -60 -30 -82 0 0Z" opacity=".95" />
    <path d="M0 0 C48 -60 30 -82 0 0Z" opacity=".95" />
    <path d="M0 0 C-86 -40 -78 -68 0 0Z" opacity=".85" />
    <path d="M0 0 C86 -40 78 -68 0 0Z" opacity=".85" />
    <path d="M0 0 C-114 -4 -100 -34 0 0Z" opacity=".72" />
    <path d="M0 0 C114 -4 100 -34 0 0Z" opacity=".72" />
    <ellipse cx="0" cy="-8" rx="9" ry="15" fill="#f6c64b" />
  </g>
</svg>
